<mxfile host="app.diagrams.net" modified="2023-09-05T11:22:31.707Z" agent="Mozilla/5.0 (Windows NT 10.0; Win64; x64) AppleWebKit/537.36 (KHTML, like Gecko) Chrome/116.0.0.0 Safari/537.36" etag="LR-fVHtj8LJ_OoaTuIPP" version="21.7.2" type="github">
  <diagram name="PÃ¡gina-1" id="kJxF2nH_lFBmJJcsmjya">
    <mxGraphModel dx="503" dy="279" grid="1" gridSize="10" guides="1" tooltips="1" connect="1" arrows="1" fold="1" page="1" pageScale="1" pageWidth="827" pageHeight="1169" math="0" shadow="0">
      <root>
        <mxCell id="0" />
        <mxCell id="1" parent="0" />
        <mxCell id="PrEaHo_hy4MQhy466miM-5" value="&lt;p style=&quot;margin:0px;margin-top:4px;text-align:center;&quot;&gt;&lt;b&gt;Continente&lt;/b&gt;&lt;/p&gt;&lt;hr size=&quot;1&quot;&gt;&lt;p style=&quot;margin:0px;margin-left:4px;&quot;&gt;- nombre: String&lt;/p&gt;&lt;p style=&quot;margin:0px;margin-left:4px;&quot;&gt;- estado: Boolean&lt;/p&gt;&lt;hr size=&quot;1&quot;&gt;&lt;p style=&quot;margin:0px;margin-left:4px;&quot;&gt;+ getNombre():String&lt;/p&gt;&lt;p style=&quot;margin:0px;margin-left:4px;&quot;&gt;+ setNombre():void&lt;/p&gt;&lt;p style=&quot;margin:0px;margin-left:4px;&quot;&gt;+ getEstado():Boolean&lt;br&gt;&lt;/p&gt;&lt;p style=&quot;margin:0px;margin-left:4px;&quot;&gt;+ setEstado():void&lt;/p&gt;" style="verticalAlign=top;align=left;overflow=fill;fontSize=12;fontFamily=Helvetica;html=1;whiteSpace=wrap;" vertex="1" parent="1">
          <mxGeometry x="120" y="70" width="160" height="140" as="geometry" />
        </mxCell>
        <mxCell id="PrEaHo_hy4MQhy466miM-7" value="&lt;p style=&quot;margin:0px;margin-top:4px;text-align:center;&quot;&gt;&lt;b&gt;Pais&lt;/b&gt;&lt;/p&gt;&lt;hr size=&quot;1&quot;&gt;&lt;p style=&quot;margin:0px;margin-left:4px;&quot;&gt;- nombre: String&lt;/p&gt;&lt;p style=&quot;margin:0px;margin-left:4px;&quot;&gt;- estado: Boolean&lt;/p&gt;&lt;hr size=&quot;1&quot;&gt;&lt;p style=&quot;margin:0px;margin-left:4px;&quot;&gt;+ get()&lt;/p&gt;&lt;p style=&quot;margin:0px;margin-left:4px;&quot;&gt;+ set()&lt;br&gt;&lt;/p&gt;" style="verticalAlign=top;align=left;overflow=fill;fontSize=12;fontFamily=Helvetica;html=1;whiteSpace=wrap;" vertex="1" parent="1">
          <mxGeometry x="340" y="130" width="160" height="110" as="geometry" />
        </mxCell>
        <mxCell id="PrEaHo_hy4MQhy466miM-8" value="&lt;p style=&quot;margin:0px;margin-top:4px;text-align:center;&quot;&gt;&lt;b&gt;Ciudad&lt;/b&gt;&lt;/p&gt;&lt;hr size=&quot;1&quot;&gt;&lt;p style=&quot;margin:0px;margin-left:4px;&quot;&gt;- nombre: String&lt;/p&gt;&lt;p style=&quot;margin:0px;margin-left:4px;&quot;&gt;- estado: Boolean&lt;/p&gt;&lt;hr size=&quot;1&quot;&gt;&lt;p style=&quot;margin:0px;margin-left:4px;&quot;&gt;+ get()&lt;/p&gt;&lt;p style=&quot;margin:0px;margin-left:4px;&quot;&gt;+ set()&lt;br&gt;&lt;/p&gt;" style="verticalAlign=top;align=left;overflow=fill;fontSize=12;fontFamily=Helvetica;html=1;whiteSpace=wrap;" vertex="1" parent="1">
          <mxGeometry x="560" y="110" width="160" height="110" as="geometry" />
        </mxCell>
        <mxCell id="PrEaHo_hy4MQhy466miM-10" value="1" style="endArrow=none;html=1;endSize=12;startArrow=diamondThin;startSize=14;startFill=1;edgeStyle=orthogonalEdgeStyle;align=left;verticalAlign=bottom;rounded=0;exitX=0;exitY=0.5;exitDx=0;exitDy=0;entryX=1;entryY=0.5;entryDx=0;entryDy=0;endFill=0;" edge="1" parent="1" source="PrEaHo_hy4MQhy466miM-8" target="PrEaHo_hy4MQhy466miM-7">
          <mxGeometry x="-1" y="3" relative="1" as="geometry">
            <mxPoint x="330" y="260" as="sourcePoint" />
            <mxPoint x="490" y="260" as="targetPoint" />
          </mxGeometry>
        </mxCell>
        <mxCell id="PrEaHo_hy4MQhy466miM-13" value="1" style="endArrow=none;html=1;endSize=12;startArrow=diamondThin;startSize=14;startFill=1;edgeStyle=orthogonalEdgeStyle;align=left;verticalAlign=bottom;rounded=0;exitX=0;exitY=0.358;exitDx=0;exitDy=0;entryX=1.011;entryY=0.288;entryDx=0;entryDy=0;endFill=0;entryPerimeter=0;exitPerimeter=0;" edge="1" parent="1" source="PrEaHo_hy4MQhy466miM-7" target="PrEaHo_hy4MQhy466miM-5">
          <mxGeometry x="-1" y="3" relative="1" as="geometry">
            <mxPoint x="330" y="150" as="sourcePoint" />
            <mxPoint x="270" y="170" as="targetPoint" />
          </mxGeometry>
        </mxCell>
        <mxCell id="PrEaHo_hy4MQhy466miM-14" value="&lt;p style=&quot;margin:0px;margin-top:4px;text-align:center;&quot;&gt;&lt;b&gt;continente&lt;/b&gt;&lt;/p&gt;&lt;hr size=&quot;1&quot;&gt;&lt;p style=&quot;margin:0px;margin-left:4px;&quot;&gt;id int not null&lt;/p&gt;&lt;p style=&quot;margin:0px;margin-left:4px;&quot;&gt;nombre varchar(50) not null&lt;/p&gt;&lt;p style=&quot;margin:0px;margin-left:4px;&quot;&gt;estado byte not null&lt;/p&gt;&lt;p style=&quot;margin:0px;margin-left:4px;&quot;&gt;&lt;br&gt;&lt;/p&gt;" style="verticalAlign=top;align=left;overflow=fill;fontSize=12;fontFamily=Helvetica;html=1;whiteSpace=wrap;" vertex="1" parent="1">
          <mxGeometry x="100" y="240" width="170" height="90" as="geometry" />
        </mxCell>
        <mxCell id="PrEaHo_hy4MQhy466miM-19" value="&lt;p style=&quot;margin:0px;margin-top:4px;text-align:center;&quot;&gt;&lt;b&gt;pais&lt;/b&gt;&lt;/p&gt;&lt;hr size=&quot;1&quot;&gt;&lt;p style=&quot;margin:0px;margin-left:4px;&quot;&gt;id int not null&lt;/p&gt;&lt;p style=&quot;margin:0px;margin-left:4px;&quot;&gt;nombre varchar(50) not null&lt;/p&gt;&lt;p style=&quot;margin:0px;margin-left:4px;&quot;&gt;estado byte not null&lt;/p&gt;&lt;p style=&quot;margin:0px;margin-left:4px;&quot;&gt;continente_id not null&lt;/p&gt;&lt;p style=&quot;margin:0px;margin-left:4px;&quot;&gt;&lt;br&gt;&lt;/p&gt;" style="verticalAlign=top;align=left;overflow=fill;fontSize=12;fontFamily=Helvetica;html=1;whiteSpace=wrap;" vertex="1" parent="1">
          <mxGeometry x="320" y="290" width="170" height="110" as="geometry" />
        </mxCell>
        <mxCell id="PrEaHo_hy4MQhy466miM-20" value="" style="edgeStyle=entityRelationEdgeStyle;fontSize=12;html=1;endArrow=ERzeroToOne;endFill=1;rounded=0;exitX=0.993;exitY=0.371;exitDx=0;exitDy=0;exitPerimeter=0;entryX=0;entryY=0.75;entryDx=0;entryDy=0;" edge="1" parent="1" source="PrEaHo_hy4MQhy466miM-14" target="PrEaHo_hy4MQhy466miM-19">
          <mxGeometry width="100" height="100" relative="1" as="geometry">
            <mxPoint x="300" y="360" as="sourcePoint" />
            <mxPoint x="400" y="260" as="targetPoint" />
            <Array as="points">
              <mxPoint x="300" y="270" />
              <mxPoint x="290" y="300" />
              <mxPoint x="300" y="270" />
              <mxPoint x="299" y="350" />
              <mxPoint x="300" y="310" />
            </Array>
          </mxGeometry>
        </mxCell>
        <mxCell id="PrEaHo_hy4MQhy466miM-21" value="PC&amp;nbsp;&lt;br&gt;Cliente" style="text;html=1;strokeColor=none;fillColor=none;align=center;verticalAlign=middle;whiteSpace=wrap;rounded=0;" vertex="1" parent="1">
          <mxGeometry x="130" y="640" width="60" height="30" as="geometry" />
        </mxCell>
        <mxCell id="PrEaHo_hy4MQhy466miM-22" value="Server&lt;br&gt;FrontEnd&lt;br&gt;Angular" style="text;html=1;strokeColor=none;fillColor=none;align=center;verticalAlign=middle;whiteSpace=wrap;rounded=0;" vertex="1" parent="1">
          <mxGeometry x="150" y="530" width="80" height="30" as="geometry" />
        </mxCell>
        <mxCell id="PrEaHo_hy4MQhy466miM-23" value="" style="endArrow=classic;startArrow=classic;html=1;rounded=0;entryX=0.507;entryY=1.243;entryDx=0;entryDy=0;entryPerimeter=0;" edge="1" parent="1" target="PrEaHo_hy4MQhy466miM-22">
          <mxGeometry width="50" height="50" relative="1" as="geometry">
            <mxPoint x="160" y="635" as="sourcePoint" />
            <mxPoint x="210" y="585" as="targetPoint" />
          </mxGeometry>
        </mxCell>
        <mxCell id="PrEaHo_hy4MQhy466miM-24" value="APIRest" style="text;html=1;strokeColor=none;fillColor=none;align=center;verticalAlign=middle;whiteSpace=wrap;rounded=0;" vertex="1" parent="1">
          <mxGeometry x="280" y="540" width="80" height="30" as="geometry" />
        </mxCell>
        <mxCell id="PrEaHo_hy4MQhy466miM-26" value="" style="endArrow=classic;startArrow=classic;html=1;rounded=0;exitX=0.952;exitY=0.729;exitDx=0;exitDy=0;exitPerimeter=0;entryX=0;entryY=0.5;entryDx=0;entryDy=0;" edge="1" parent="1" source="PrEaHo_hy4MQhy466miM-22" target="PrEaHo_hy4MQhy466miM-24">
          <mxGeometry width="50" height="50" relative="1" as="geometry">
            <mxPoint x="270" y="628" as="sourcePoint" />
            <mxPoint x="280" y="550" as="targetPoint" />
          </mxGeometry>
        </mxCell>
        <mxCell id="PrEaHo_hy4MQhy466miM-27" value="Server&lt;br&gt;BackEnd&lt;br&gt;SpringBoot" style="text;html=1;strokeColor=none;fillColor=none;align=center;verticalAlign=middle;whiteSpace=wrap;rounded=0;" vertex="1" parent="1">
          <mxGeometry x="400" y="540" width="80" height="30" as="geometry" />
        </mxCell>
        <mxCell id="PrEaHo_hy4MQhy466miM-28" value="" style="endArrow=classic;startArrow=classic;html=1;rounded=0;exitX=0.952;exitY=0.729;exitDx=0;exitDy=0;exitPerimeter=0;" edge="1" parent="1" target="PrEaHo_hy4MQhy466miM-27">
          <mxGeometry width="50" height="50" relative="1" as="geometry">
            <mxPoint x="346" y="560" as="sourcePoint" />
            <mxPoint x="400" y="563" as="targetPoint" />
          </mxGeometry>
        </mxCell>
        <mxCell id="PrEaHo_hy4MQhy466miM-30" value="BD&lt;br&gt;h2" style="text;html=1;strokeColor=none;fillColor=none;align=center;verticalAlign=middle;whiteSpace=wrap;rounded=0;" vertex="1" parent="1">
          <mxGeometry x="400" y="610" width="80" height="40" as="geometry" />
        </mxCell>
        <mxCell id="PrEaHo_hy4MQhy466miM-31" value="" style="endArrow=classic;startArrow=classic;html=1;rounded=0;" edge="1" parent="1" source="PrEaHo_hy4MQhy466miM-27" target="PrEaHo_hy4MQhy466miM-30">
          <mxGeometry width="50" height="50" relative="1" as="geometry">
            <mxPoint x="393" y="607" as="sourcePoint" />
            <mxPoint x="447" y="610" as="targetPoint" />
          </mxGeometry>
        </mxCell>
      </root>
    </mxGraphModel>
  </diagram>
</mxfile>
